<?xml version="1.0" encoding="UTF-8" standalone="no"?><!DOCTYPE svg PUBLIC "-//W3C//DTD SVG 1.1//EN" "http://www.w3.org/Graphics/SVG/1.1/DTD/svg11.dtd"><svg width="100%" height="100%" viewBox="0 0 4128 2222" version="1.1" xmlns="http://www.w3.org/2000/svg" xmlns:xlink="http://www.w3.org/1999/xlink" xml:space="preserve" xmlns:serif="http://www.serif.com/" style="fill-rule:evenodd;clip-rule:evenodd;stroke-linejoin:round;stroke-miterlimit:2;"><rect id="wh" x="0" y="0" width="4127.88" height="2221.3" style="fill:none;"/><g><path d="M3697.33,2060.43l65.162,0c-0,6.7 -0.279,12.787 -0.838,18.259c-0.558,5.472 -1.675,10.553 -3.35,15.243c-2.345,6.589 -5.528,12.424 -9.548,17.505c-4.02,5.081 -8.738,9.325 -14.155,12.731c-5.416,3.406 -11.362,6.002 -17.839,7.789c-6.478,1.787 -13.29,2.68 -20.437,2.68c-9.827,0 -18.789,-1.619 -26.885,-4.858c-8.096,-3.238 -15.048,-7.789 -20.855,-13.652c-5.807,-5.863 -10.33,-12.898 -13.568,-21.106c-3.239,-8.208 -4.858,-17.282 -4.858,-27.221c-0,-9.827 1.591,-18.844 4.774,-27.052c3.183,-8.208 7.705,-15.216 13.568,-21.023c5.863,-5.807 12.926,-10.33 21.19,-13.568c8.264,-3.239 17.477,-4.858 27.639,-4.858c13.178,-0 24.736,2.848 34.675,8.543c9.939,5.695 17.812,14.518 23.619,26.467l-31.157,12.898c-2.903,-6.924 -6.672,-11.893 -11.307,-14.909c-4.634,-3.015 -9.911,-4.522 -15.83,-4.522c-4.913,-0 -9.38,0.921 -13.4,2.764c-4.021,1.842 -7.455,4.467 -10.302,7.873c-2.848,3.406 -5.081,7.51 -6.701,12.312c-1.619,4.802 -2.429,10.162 -2.429,16.081c0,5.36 0.698,10.329 2.094,14.908c1.396,4.579 3.49,8.543 6.282,11.893c2.792,3.35 6.254,5.947 10.386,7.789c4.131,1.843 8.933,2.764 14.405,2.764c3.239,0 6.366,-0.363 9.381,-1.089c3.015,-0.725 5.723,-1.898 8.124,-3.517c2.401,-1.619 4.383,-3.713 5.947,-6.282c1.563,-2.568 2.624,-5.695 3.183,-9.38l-26.97,-0l0,-25.462Z" style="fill:#fff;fill-rule:nonzero;"/><path d="M3854.79,2032.62l-39.532,0l-0,21.107l36.014,-0l0,27.806l-36.014,0l-0,49.583l-32.832,0l-0,-126.302l72.364,-0l-0,27.806Z" style="fill:#fff;fill-rule:nonzero;"/><path d="M3909.74,2063.78l-39.365,-58.963l40.538,-0l17.086,32.664l21.106,-32.664l40.538,-0l-41.71,58.963l47.07,67.339l-40.035,0l-25.294,-41.207l-29.649,41.207l-39.7,0l49.415,-67.339Z" style="fill:#fff;fill-rule:nonzero;"/><path d="M4003.04,2115.04c0,-2.68 0.503,-5.22 1.508,-7.621c1.005,-2.401 2.401,-4.495 4.188,-6.282c1.787,-1.787 3.88,-3.183 6.281,-4.188c2.401,-1.005 4.942,-1.507 7.622,-1.507c2.68,-0 5.221,0.502 7.622,1.507c2.401,1.005 4.495,2.401 6.281,4.188c1.787,1.787 3.183,3.881 4.188,6.282c1.005,2.401 1.508,4.941 1.508,7.621c-0,2.681 -0.503,5.221 -1.508,7.622c-1.005,2.401 -2.401,4.495 -4.188,6.282c-1.786,1.786 -3.88,3.182 -6.281,4.187c-2.401,1.006 -4.942,1.508 -7.622,1.508c-2.68,0 -5.221,-0.502 -7.622,-1.508c-2.401,-1.005 -4.494,-2.401 -6.281,-4.187c-1.787,-1.787 -3.183,-3.881 -4.188,-6.282c-1.005,-2.401 -1.508,-4.941 -1.508,-7.622Z" style="fill:#fff;fill-rule:nonzero;"/></g><g><path d="M702.783,68.55c-352.112,-0 -631.731,163.11 -631.731,411.66l0,227.837c0,204.536 144.988,313.277 331.4,385.77c160.522,62.138 359.879,100.974 478.976,139.809c90.617,28.48 116.508,59.549 116.508,129.453l-0,137.221c-0,77.671 -144.988,113.918 -295.153,113.918c-152.755,0 -279.619,-36.247 -279.619,-134.631l0,-243.371l-359.879,-0l0,297.741c0,238.194 300.331,411.661 660.21,411.661c349.523,-0 634.32,-163.111 634.32,-411.661l-0,-227.837c-0,-189.001 -82.85,-289.975 -209.714,-346.934c-157.933,-72.494 -567.004,-160.522 -642.087,-189.001c-41.425,-15.535 -75.082,-46.603 -75.082,-111.33l-0,-137.22c-0,-82.85 100.973,-121.686 279.618,-121.686c178.645,0 271.851,38.836 271.851,119.097l0,214.892l359.88,-0l-0,-253.728c-0,-245.961 -284.797,-411.66 -639.498,-411.66Z" style="fill:#fff;fill-rule:nonzero;"/><path d="M2346.84,1150.78l-0,383.18c-0,46.603 -142.399,80.261 -282.208,80.261c-116.507,0 -287.385,-33.658 -287.385,-80.261l-0,-204.535l-359.88,-0l0,204.535c0,220.07 302.92,411.661 647.265,411.661c341.756,-0 647.265,-150.166 647.265,-390.948l0,-1092.58c0,-256.317 -243.371,-393.537 -647.265,-393.537c-385.77,-0 -647.265,152.754 -647.265,409.071l0,673.156l929.473,-0Zm-0,-331.4l-569.593,-0l-0,-341.756c-0,-44.014 150.165,-77.672 287.385,-77.672c150.166,0 282.208,33.658 282.208,77.672l-0,341.756Z" style="fill:#fff;fill-rule:nonzero;"/><path d="M3410.94,68.55c-378.002,-0 -639.497,147.576 -639.497,393.537l-0,227.837l367.646,-0l-0,-209.714c-0,-46.603 126.864,-80.261 271.851,-80.261c132.042,0 284.797,36.247 284.797,80.261l-0,209.714c-0,82.85 -62.138,124.275 -181.234,124.275l-201.947,-0l-0,341.756l201.947,-0c126.864,-0 191.59,28.479 191.59,80.261l0,297.741c0,49.193 -121.686,80.261 -287.386,80.261c-129.453,0 -279.618,-36.247 -279.618,-80.261l-0,-256.317l-367.646,0l-0,277.03c-0,222.659 297.741,390.948 647.264,390.948c370.236,-0 647.265,-160.522 647.265,-411.661l0,-297.741c0,-103.563 -54.37,-186.413 -163.11,-253.728c103.562,-49.192 152.754,-134.631 152.754,-251.139l0,-251.139c0,-261.495 -245.961,-411.66 -644.676,-411.66Z" style="fill:#fff;fill-rule:nonzero;"/></g></svg>